<?xml version="1.0" standalone="no"?>
<!DOCTYPE svg PUBLIC "-//W3C//DTD SVG 20010904//EN"
 "http://www.w3.org/TR/2001/REC-SVG-20010904/DTD/svg10.dtd">
<svg version="1.0" xmlns="http://www.w3.org/2000/svg"
 width="700.000000pt" height="700.000000pt" viewBox="0 0 700.000000 700.000000"
 preserveAspectRatio="xMidYMid meet">
<metadata>
Created by potrace 1.14, written by Peter Selinger 2001-2017
</metadata>
<g transform="translate(0.000000,700.000000) scale(0.100000,-0.100000)"
fill="#000000" stroke="none">
<path d="M3660 6463 l0 -113 335 0 c184 0 335 -3 335 -6 0 -3 -151 -199 -335
-436 l-335 -430 0 -114 0 -114 498 2 497 3 0 110 0 110 -328 1 c-180 0 -330 3
-333 7 -5 4 298 400 615 804 l49 62 -2 113 -1 113 -497 1 -498 1 0 -114z"/>
<path d="M2585 5821 c0 -72 3 -91 15 -93 8 -2 131 -3 273 -3 141 1 257 -2 257
-5 0 -3 -79 -106 -176 -230 -96 -124 -187 -241 -202 -260 -15 -19 -59 -75 -97
-125 l-71 -91 2 -84 c1 -47 2 -88 3 -92 0 -5 183 -8 405 -8 l404 0 -1 92 -2
93 -268 0 c-170 0 -267 4 -266 10 1 8 127 174 304 400 13 17 70 91 128 165
l105 135 1 92 1 93 -407 0 -408 0 0 -89z"/>
<path d="M1722 5021 c-9 -7 -10 -134 -1 -141 4 -3 102 -5 218 -4 116 1 211 -2
211 -5 0 -6 -24 -37 -299 -391 l-135 -173 0 -74 c-1 -66 1 -73 19 -74 26 -1
594 -1 617 0 14 1 17 13 17 74 l0 74 -219 -1 c-121 -1 -219 2 -218 6 2 5 101
134 221 288 l218 280 -3 73 -3 72 -318 1 c-174 0 -321 -2 -325 -5z"/>
<path d="M395 4578 c-56 -20 -121 -76 -151 -130 l-29 -53 -2 -1866 c-3 -2115
-11 -1922 81 -2014 67 -67 121 -83 271 -79 125 3 164 15 226 71 48 43 77 97
86 156 3 23 6 177 7 342 l1 300 2620 0 2620 0 1 -345 c1 -376 2 -382 61 -446
56 -62 103 -77 244 -79 69 -1 146 3 171 10 61 15 118 63 148 122 24 48 24 50
27 403 3 362 6 1187 4 1205 -1 7 -987 10 -2938 9 -1616 0 -2943 1 -2949 3 -9
3 -12 291 -12 1086 0 764 -3 1094 -11 1123 -22 81 -92 152 -180 182 -42 15
-255 14 -296 0z"/>
<path d="M3015 3933 c-149 -21 -257 -86 -328 -199 -60 -97 -61 -104 -62 -739
-1 -319 0 -585 2 -591 3 -7 627 -10 2080 -10 l2077 1 -1 415 c-1 433 -2 457
-29 537 -35 103 -120 233 -196 298 -178 155 -391 245 -668 281 -50 7 -2829 13
-2875 7z"/>
<path d="M1676 3698 c-215 -26 -405 -159 -504 -355 -69 -135 -84 -357 -33
-488 123 -317 406 -484 725 -428 366 63 606 440 507 796 -44 160 -132 282
-267 372 -84 56 -163 86 -264 100 -75 10 -97 11 -164 3z"/>
</g>
</svg>
